<svg width="234" height="70" viewBox="0 0 234 70" fill="none" xmlns="http://www.w3.org/2000/svg">
<path d="M79.2727 47V23.7273H88.4545C90.2121 23.7273 91.7121 24.0417 92.9545 24.6705C94.2045 25.2917 95.1553 26.1742 95.8068 27.3182C96.4659 28.4545 96.7955 29.7917 96.7955 31.3295C96.7955 32.875 96.4621 34.2045 95.7955 35.3182C95.1288 36.4242 94.1629 37.2727 92.8977 37.8636C91.6402 38.4545 90.1174 38.75 88.3295 38.75H82.1818V34.7955H87.5341C88.4735 34.7955 89.2538 34.6667 89.875 34.4091C90.4962 34.1515 90.9583 33.7652 91.2614 33.25C91.572 32.7348 91.7273 32.0947 91.7273 31.3295C91.7273 30.5568 91.572 29.9053 91.2614 29.375C90.9583 28.8447 90.4924 28.4432 89.8636 28.1705C89.2424 27.8902 88.4583 27.75 87.5114 27.75H84.1932V47H79.2727ZM91.8409 36.4091L97.625 47H92.1932L86.5341 36.4091H91.8409ZM107.855 47.3409C106.06 47.3409 104.514 46.9773 103.219 46.25C101.931 45.5152 100.938 44.4773 100.241 43.1364C99.5445 41.7879 99.196 40.1932 99.196 38.3523C99.196 36.5568 99.5445 34.9811 100.241 33.625C100.938 32.2689 101.92 31.2121 103.185 30.4545C104.457 29.697 105.95 29.3182 107.662 29.3182C108.813 29.3182 109.885 29.5038 110.878 29.875C111.878 30.2386 112.749 30.7879 113.491 31.5227C114.241 32.2576 114.825 33.1818 115.241 34.2955C115.658 35.4015 115.866 36.697 115.866 38.1818V39.5114H101.128V36.5114H111.31C111.31 35.8144 111.158 35.197 110.855 34.6591C110.552 34.1212 110.132 33.7008 109.594 33.3977C109.063 33.0871 108.446 32.9318 107.741 32.9318C107.007 32.9318 106.355 33.1023 105.787 33.4432C105.226 33.7765 104.787 34.2273 104.469 34.7955C104.151 35.3561 103.988 35.9811 103.98 36.6705V39.5227C103.98 40.3864 104.139 41.1326 104.457 41.7614C104.783 42.3902 105.241 42.875 105.832 43.2159C106.423 43.5568 107.124 43.7273 107.935 43.7273C108.473 43.7273 108.965 43.6515 109.412 43.5C109.859 43.3485 110.241 43.1212 110.56 42.8182C110.878 42.5152 111.12 42.1439 111.287 41.7045L115.764 42C115.537 43.0758 115.071 44.0152 114.366 44.8182C113.67 45.6136 112.768 46.2348 111.662 46.6818C110.563 47.1212 109.295 47.3409 107.855 47.3409ZM139.651 31.875H134.673C134.582 31.2311 134.397 30.6591 134.116 30.1591C133.836 29.6515 133.476 29.2197 133.037 28.8636C132.598 28.5076 132.09 28.2348 131.514 28.0455C130.946 27.8561 130.329 27.7614 129.662 27.7614C128.457 27.7614 127.408 28.0606 126.514 28.6591C125.62 29.25 124.927 30.1136 124.435 31.25C123.942 32.3788 123.696 33.75 123.696 35.3636C123.696 37.0227 123.942 38.4167 124.435 39.5455C124.935 40.6742 125.632 41.5265 126.526 42.1023C127.42 42.678 128.454 42.9659 129.628 42.9659C130.287 42.9659 130.897 42.8788 131.457 42.7045C132.026 42.5303 132.529 42.2765 132.969 41.9432C133.408 41.6023 133.772 41.1894 134.06 40.7045C134.355 40.2197 134.56 39.6667 134.673 39.0455L139.651 39.0682C139.522 40.1364 139.2 41.1667 138.685 42.1591C138.177 43.1439 137.491 44.0265 136.628 44.8068C135.772 45.5795 134.749 46.1932 133.56 46.6477C132.378 47.0947 131.041 47.3182 129.548 47.3182C127.473 47.3182 125.616 46.8485 123.98 45.9091C122.351 44.9697 121.063 43.6098 120.116 41.8295C119.177 40.0492 118.707 37.8939 118.707 35.3636C118.707 32.8258 119.185 30.6667 120.139 28.8864C121.094 27.1061 122.389 25.75 124.026 24.8182C125.662 23.8788 127.503 23.4091 129.548 23.4091C130.897 23.4091 132.147 23.5985 133.298 23.9773C134.457 24.3561 135.484 24.9091 136.378 25.6364C137.272 26.3561 137.999 27.2386 138.56 28.2841C139.128 29.3295 139.491 30.5265 139.651 31.875ZM150.974 47.3409C149.209 47.3409 147.683 46.9659 146.395 46.2159C145.115 45.4583 144.126 44.4053 143.429 43.0568C142.732 41.7008 142.384 40.1288 142.384 38.3409C142.384 36.5379 142.732 34.9621 143.429 33.6136C144.126 32.2576 145.115 31.2045 146.395 30.4545C147.683 29.697 149.209 29.3182 150.974 29.3182C152.74 29.3182 154.262 29.697 155.543 30.4545C156.83 31.2045 157.823 32.2576 158.52 33.6136C159.217 34.9621 159.565 36.5379 159.565 38.3409C159.565 40.1288 159.217 41.7008 158.52 43.0568C157.823 44.4053 156.83 45.4583 155.543 46.2159C154.262 46.9659 152.74 47.3409 150.974 47.3409ZM150.997 43.5909C151.8 43.5909 152.471 43.3636 153.009 42.9091C153.546 42.447 153.952 41.8182 154.224 41.0227C154.505 40.2273 154.645 39.322 154.645 38.3068C154.645 37.2917 154.505 36.3864 154.224 35.5909C153.952 34.7955 153.546 34.1667 153.009 33.7045C152.471 33.2424 151.8 33.0114 150.997 33.0114C150.187 33.0114 149.505 33.2424 148.952 33.7045C148.406 34.1667 147.993 34.7955 147.713 35.5909C147.44 36.3864 147.304 37.2917 147.304 38.3068C147.304 39.322 147.44 40.2273 147.713 41.0227C147.993 41.8182 148.406 42.447 148.952 42.9091C149.505 43.3636 150.187 43.5909 150.997 43.5909ZM167.554 36.9091V47H162.713V29.5455H167.327V32.625H167.531C167.918 31.6098 168.565 30.8068 169.474 30.2159C170.384 29.6174 171.486 29.3182 172.781 29.3182C173.993 29.3182 175.05 29.5833 175.952 30.1136C176.853 30.6439 177.554 31.4015 178.054 32.3864C178.554 33.3636 178.804 34.5303 178.804 35.8864V47H173.963V36.75C173.971 35.6818 173.698 34.8485 173.145 34.25C172.592 33.6439 171.83 33.3409 170.861 33.3409C170.209 33.3409 169.634 33.4811 169.134 33.7614C168.641 34.0417 168.255 34.4508 167.974 34.9886C167.702 35.5189 167.562 36.1591 167.554 36.9091ZM191.903 29.5455V33.1818H181.392V29.5455H191.903ZM183.778 25.3636H188.619V41.6364C188.619 42.0833 188.688 42.4318 188.824 42.6818C188.96 42.9242 189.15 43.0947 189.392 43.1932C189.642 43.2917 189.93 43.3409 190.256 43.3409C190.483 43.3409 190.71 43.322 190.938 43.2841C191.165 43.2386 191.339 43.2045 191.46 43.1818L192.222 46.7841C191.979 46.8598 191.638 46.947 191.199 47.0455C190.759 47.1515 190.225 47.2159 189.597 47.2386C188.43 47.2841 187.407 47.1288 186.528 46.7727C185.657 46.4167 184.979 45.8636 184.494 45.1136C184.009 44.3636 183.771 43.4167 183.778 42.2727V25.3636ZM195.057 47V29.5455H199.75V32.5909H199.932C200.25 31.5076 200.784 30.6894 201.534 30.1364C202.284 29.5758 203.148 29.2955 204.125 29.2955C204.367 29.2955 204.629 29.3106 204.909 29.3409C205.189 29.3712 205.436 29.4129 205.648 29.4659V33.7614C205.42 33.6932 205.106 33.6326 204.705 33.5795C204.303 33.5265 203.936 33.5 203.602 33.5C202.89 33.5 202.254 33.6553 201.693 33.9659C201.14 34.2689 200.701 34.6932 200.375 35.2386C200.057 35.7841 199.898 36.4129 199.898 37.125V47H195.057ZM215.224 47.3409C213.459 47.3409 211.933 46.9659 210.645 46.2159C209.365 45.4583 208.376 44.4053 207.679 43.0568C206.982 41.7008 206.634 40.1288 206.634 38.3409C206.634 36.5379 206.982 34.9621 207.679 33.6136C208.376 32.2576 209.365 31.2045 210.645 30.4545C211.933 29.697 213.459 29.3182 215.224 29.3182C216.99 29.3182 218.512 29.697 219.793 30.4545C221.08 31.2045 222.073 32.2576 222.77 33.6136C223.467 34.9621 223.815 36.5379 223.815 38.3409C223.815 40.1288 223.467 41.7008 222.77 43.0568C222.073 44.4053 221.08 45.4583 219.793 46.2159C218.512 46.9659 216.99 47.3409 215.224 47.3409ZM215.247 43.5909C216.05 43.5909 216.721 43.3636 217.259 42.9091C217.796 42.447 218.202 41.8182 218.474 41.0227C218.755 40.2273 218.895 39.322 218.895 38.3068C218.895 37.2917 218.755 36.3864 218.474 35.5909C218.202 34.7955 217.796 34.1667 217.259 33.7045C216.721 33.2424 216.05 33.0114 215.247 33.0114C214.437 33.0114 213.755 33.2424 213.202 33.7045C212.656 34.1667 212.243 34.7955 211.963 35.5909C211.69 36.3864 211.554 37.2917 211.554 38.3068C211.554 39.322 211.69 40.2273 211.963 41.0227C212.243 41.8182 212.656 42.447 213.202 42.9091C213.755 43.3636 214.437 43.5909 215.247 43.5909ZM231.804 23.7273V47H226.963V23.7273H231.804Z" fill="white"/>
<circle cx="35" cy="35" r="34" fill="#F3F4F6" stroke="#1E3A8A" stroke-width="2"/>
<path d="M47.7292 57.8334H34.9688H22.2083" stroke="#1E3A8A" stroke-width="3" stroke-linecap="round" stroke-linejoin="round"/>
<path d="M34.9688 57.8333V47.625" stroke="#1E3A8A" stroke-width="3" stroke-linecap="round" stroke-linejoin="round"/>
<path d="M34.9687 47.625H12V17H57.9375V47.625H34.9687Z" stroke="#1E3A8A" stroke-width="3" stroke-linecap="round" stroke-linejoin="round"/>
</svg>
