<svg width="25" height="25" viewBox="0 0 25 25" fill="none" xmlns="http://www.w3.org/2000/svg">
<path d="M4.5542 19.6645C7.08907 22.0782 10.1073 21.1125 11.3152 20.1347C11.9388 19.6291 12.2204 19.3022 12.4616 19.06C13.3062 18.2759 13.2527 17.4909 12.7037 16.8632C12.4827 16.6119 11.073 15.2577 9.72082 13.8692C9.0205 13.1688 8.53815 12.6744 8.12442 12.2748C7.57243 11.7238 7.08907 11.0921 6.36453 11.1103C5.70054 11.1103 5.21819 11.6956 4.61373 12.3C3.91947 12.9943 3.40684 13.8692 3.22621 14.6543C2.6823 16.948 3.52793 18.5777 4.5542 19.6645ZM4.5542 19.6645L2.01831 22.1993M19.6646 4.55612C17.1287 2.14032 14.1205 3.12319 12.9136 4.10202C12.288 4.6086 12.0075 4.93555 11.7653 5.17773C10.9207 5.96282 10.9741 6.7479 11.5241 7.37557C11.6028 7.46639 11.8369 7.69848 12.1649 8.02543M19.6646 4.55612C20.6908 5.64293 21.5476 7.2908 21.0036 9.58652C20.822 10.3716 20.3094 11.2465 19.6151 11.9418C19.0117 12.5452 18.5283 13.1315 17.8643 13.1315C17.1398 13.1497 16.7644 12.6249 16.2104 12.074M19.6646 4.55612L22.2004 2.01822M12.1649 8.02543C12.7512 8.60567 13.6412 9.48056 14.507 10.3706C15.2073 11.0709 15.7967 11.6744 16.2104 12.073L14.6342 13.6118M12.1649 8.02543L10.6078 9.59156" stroke="#F3F4F6" stroke-width="1.5" stroke-linecap="round"/>
</svg>
