<svg width="26" height="26" viewBox="0 0 26 26" fill="none" xmlns="http://www.w3.org/2000/svg">
<path d="M14.023 8.9313V4.83933C14.023 4.54948 14.1212 4.30669 14.3176 4.11096C14.514 3.91523 14.7568 3.81702 15.046 3.81634H21.1839C21.4738 3.81634 21.7169 3.91454 21.9133 4.11096C22.1097 4.30737 22.2076 4.55016 22.2069 4.83933V8.9313C22.2069 9.22114 22.1087 9.46427 21.9123 9.66069C21.7159 9.8571 21.4731 9.95497 21.1839 9.95429H15.046C14.7561 9.95429 14.5133 9.85608 14.3176 9.65967C14.1219 9.46325 14.0237 9.22046 14.023 8.9313ZM3.79308 13.0233V4.83933C3.79308 4.54948 3.89128 4.30669 4.0877 4.11096C4.28411 3.91523 4.5269 3.81702 4.81607 3.81634H10.954C11.2439 3.81634 11.487 3.91454 11.6834 4.11096C11.8798 4.30737 11.9777 4.55016 11.977 4.83933V13.0233C11.977 13.3131 11.8788 13.5562 11.6824 13.7527C11.486 13.9491 11.2432 14.0469 10.954 14.0463H4.81607C4.52622 14.0463 4.28343 13.948 4.0877 13.7516C3.89196 13.5552 3.79376 13.3124 3.79308 13.0233ZM14.023 21.2072V13.0233C14.023 12.7334 14.1212 12.4906 14.3176 12.2949C14.514 12.0992 14.7568 12.001 15.046 12.0003H21.1839C21.4738 12.0003 21.7169 12.0985 21.9133 12.2949C22.1097 12.4913 22.2076 12.7341 22.2069 13.0233V21.2072C22.2069 21.497 22.1087 21.7402 21.9123 21.9366C21.7159 22.133 21.4731 22.2309 21.1839 22.2302H15.046C14.7561 22.2302 14.5133 22.132 14.3176 21.9356C14.1219 21.7391 14.0237 21.4964 14.023 21.2072ZM3.79308 21.2072V17.1152C3.79308 16.8254 3.89128 16.5826 4.0877 16.3869C4.28411 16.1911 4.5269 16.0929 4.81607 16.0922H10.954C11.2439 16.0922 11.487 16.1904 11.6834 16.3869C11.8798 16.5833 11.9777 16.8261 11.977 17.1152V21.2072C11.977 21.497 11.8788 21.7402 11.6824 21.9366C11.486 22.133 11.2432 22.2309 10.954 22.2302H4.81607C4.52622 22.2302 4.28343 22.132 4.0877 21.9356C3.89196 21.7391 3.79376 21.4964 3.79308 21.2072ZM5.83906 12.0003H9.93102V5.86232H5.83906V12.0003ZM16.069 20.1842H20.1609V14.0463H16.069V20.1842ZM16.069 7.9083H20.1609V5.86232H16.069V7.9083ZM5.83906 20.1842H9.93102V18.1382H5.83906V20.1842Z" fill="#F3F4F6"/>
</svg>
