<svg width="26" height="26" viewBox="0 0 26 26" fill="none" xmlns="http://www.w3.org/2000/svg">
<path d="M2.77008 21.2072V19.1612H13V21.2072H2.77008ZM5.83906 18.1382C5.27641 18.1382 4.79493 17.938 4.39459 17.5377C3.99426 17.1374 3.79376 16.6556 3.79308 16.0922V6.88531C3.79308 6.32266 3.99358 5.84117 4.39459 5.44084C4.79561 5.04051 5.2771 4.84001 5.83906 4.83932H20.1609C20.7236 4.83932 21.2054 5.03983 21.6064 5.44084C22.0074 5.84186 22.2076 6.32334 22.2069 6.88531H5.83906V16.0922H13V18.1382H5.83906ZM21.1839 19.1612V10.9773H17.092V19.1612H21.1839ZM16.5805 21.2072C16.1542 21.2072 15.7921 21.0582 15.4941 20.7601C15.196 20.4621 15.0467 20.0996 15.046 19.6727V10.4658C15.046 10.0395 15.1953 9.67739 15.4941 9.37936C15.7928 9.08133 16.1549 8.93197 16.5805 8.93129H21.6954C22.1217 8.93129 22.4842 9.08065 22.7829 9.37936C23.0816 9.67807 23.2306 10.0402 23.2299 10.4658V19.6727C23.2299 20.0989 23.0809 20.4614 22.7829 20.7601C22.4848 21.0589 22.1224 21.2079 21.6954 21.2072H16.5805ZM19.1379 13.5348C19.3596 13.5348 19.5431 13.458 19.6883 13.3046C19.8336 13.1511 19.9059 12.9721 19.9052 12.7675C19.9052 12.5459 19.8326 12.3627 19.6873 12.2182C19.542 12.0736 19.3589 12.0009 19.1379 12.0003C18.9333 12.0003 18.7543 12.0729 18.6009 12.2182C18.4474 12.3634 18.3707 12.5465 18.3707 12.7675C18.3707 12.9721 18.4474 13.1511 18.6009 13.3046C18.7543 13.458 18.9333 13.5348 19.1379 13.5348Z" fill="#F3F4F6"/>
</svg>
