<svg width="26" height="26" viewBox="0 0 26 26" fill="none" xmlns="http://www.w3.org/2000/svg">
<path d="M12.5094 18.8427C12.8758 18.8427 13.1857 18.716 13.439 18.4627C13.6924 18.2094 13.8187 17.8999 13.818 17.5342C13.8173 17.1685 13.691 16.8586 13.439 16.6046C13.1871 16.3506 12.8772 16.2243 12.5094 16.2256C12.1417 16.227 11.8322 16.3537 11.5809 16.6056C11.3297 16.8576 11.203 17.1671 11.2009 17.5342C11.1988 17.9013 11.3255 18.2111 11.5809 18.4637C11.8363 18.7164 12.1459 18.8427 12.5094 18.8427ZM11.5673 14.8124H13.5039C13.5039 14.2367 13.5695 13.7831 13.7007 13.4516C13.8319 13.1201 14.2025 12.6665 14.8124 12.0907C15.2661 11.6371 15.6237 11.2051 15.8854 10.7948C16.1471 10.3844 16.278 9.89171 16.278 9.31666C16.278 8.33963 15.9203 7.58942 15.205 7.06601C14.4897 6.5426 13.6435 6.2809 12.6665 6.2809C11.672 6.2809 10.8653 6.5426 10.2462 7.06601C9.62722 7.58942 9.19523 8.21751 8.95028 8.95028L10.6775 9.63071C10.7648 9.31666 10.9612 8.97645 11.2669 8.61006C11.5725 8.24368 12.0391 8.06048 12.6665 8.06048C13.2248 8.06048 13.6435 8.21332 13.9227 8.51899C14.2018 8.82466 14.3414 9.16034 14.3414 9.52603C14.3414 9.87497 14.2367 10.2023 14.0273 10.5079C13.818 10.8136 13.5563 11.0969 13.2422 11.358C12.4746 12.0384 12.0035 12.5531 11.829 12.902C11.6546 13.2509 11.5673 13.8878 11.5673 14.8124ZM12.5618 23.03C11.1137 23.03 9.75284 22.7553 8.47921 22.2061C7.20558 21.6569 6.0977 20.9109 5.15557 19.968C4.21343 19.0252 3.46775 17.9173 2.91852 16.6444C2.36929 15.3714 2.09433 14.0106 2.09363 12.5618C2.09293 11.113 2.3679 9.75214 2.91852 8.47921C3.46915 7.20628 4.21483 6.0984 5.15557 5.15557C6.09631 4.21274 7.20419 3.46706 8.47921 2.91852C9.75423 2.36999 11.1151 2.09503 12.5618 2.09363C14.0085 2.09224 15.3694 2.3672 16.6444 2.91852C17.9194 3.46985 19.0273 4.21553 19.968 5.15557C20.9088 6.09561 21.6548 7.20349 22.2061 8.47921C22.7574 9.75493 23.032 11.1158 23.03 12.5618C23.0279 14.0078 22.7529 15.3687 22.2051 16.6444C21.6572 17.9201 20.9115 19.028 19.968 19.968C19.0245 20.9081 17.9166 21.6541 16.6444 22.2061C15.3721 22.7581 14.0113 23.0327 12.5618 23.03ZM12.5618 20.9363C14.8997 20.9363 16.8799 20.125 18.5025 18.5025C20.125 16.8799 20.9363 14.8997 20.9363 12.5618C20.9363 10.2239 20.125 8.24368 18.5025 6.62111C16.8799 4.99855 14.8997 4.18727 12.5618 4.18727C10.2239 4.18727 8.24368 4.99855 6.62111 6.62111C4.99855 8.24368 4.18726 10.2239 4.18726 12.5618C4.18726 14.8997 4.99855 16.8799 6.62111 18.5025C8.24368 20.125 10.2239 20.9363 12.5618 20.9363Z" fill="#F3F4F6"/>
</svg>
