<svg width="25" height="25" viewBox="0 0 25 25" fill="none" xmlns="http://www.w3.org/2000/svg">
<path d="M6.24996 19.7917V10.4167C6.24996 8.75906 6.90844 7.16935 8.08054 5.99725C9.25264 4.82515 10.8424 4.16667 12.5 4.16667C14.1576 4.16667 15.7473 4.82515 16.9194 5.99725C18.0915 7.16935 18.75 8.75906 18.75 10.4167V19.7917M6.24996 19.7917H18.75M6.24996 19.7917H4.16663M18.75 19.7917H20.8333M11.4583 22.9167H13.5416" stroke="black" stroke-width="2" stroke-linecap="round" stroke-linejoin="round"/>
<path d="M12.4999 4.16667C13.0752 4.16667 13.5416 3.7003 13.5416 3.125C13.5416 2.5497 13.0752 2.08333 12.4999 2.08333C11.9246 2.08333 11.4583 2.5497 11.4583 3.125C11.4583 3.7003 11.9246 4.16667 12.4999 4.16667Z" stroke="black" stroke-width="2"/>
</svg>
