<svg width="26" height="26" viewBox="0 0 26 26" fill="none" xmlns="http://www.w3.org/2000/svg">
<path d="M12.5094 19.3041C12.8758 19.3041 13.1857 19.1774 13.439 18.9241C13.6924 18.6708 13.8187 18.3613 13.818 17.9956C13.8173 17.6299 13.691 17.3201 13.439 17.066C13.1871 16.812 12.8772 16.6857 12.5094 16.6871C12.1417 16.6885 11.8322 16.8151 11.5809 17.0671C11.3297 17.319 11.203 17.6285 11.2009 17.9956C11.1988 18.3627 11.3255 18.6725 11.5809 18.9252C11.8363 19.1778 12.1459 19.3041 12.5094 19.3041ZM11.5673 15.2739H13.5039C13.5039 14.6981 13.5695 14.2445 13.7007 13.913C13.8319 13.5815 14.2025 13.1279 14.8124 12.5522C15.2661 12.0985 15.6237 11.6665 15.8854 11.2562C16.1471 10.8458 16.278 10.3531 16.278 9.77809C16.278 8.80106 15.9203 8.05084 15.205 7.52744C14.4897 7.00403 13.6435 6.74232 12.6665 6.74232C11.672 6.74232 10.8653 7.00403 10.2462 7.52744C9.62722 8.05084 9.19523 8.67893 8.95028 9.4117L10.6775 10.0921C10.7648 9.77809 10.9612 9.43787 11.2669 9.07149C11.5725 8.7051 12.0391 8.52191 12.6665 8.52191C13.2248 8.52191 13.6435 8.67475 13.9227 8.98042C14.2018 9.28609 14.3414 9.62177 14.3414 9.98745C14.3414 10.3364 14.2367 10.6637 14.0273 10.9694C13.818 11.275 13.5563 11.5584 13.2422 11.8194C12.4746 12.4998 12.0035 13.0145 11.829 13.3634C11.6546 13.7124 11.5673 14.3492 11.5673 15.2739ZM12.5618 23.4914C11.1137 23.4914 9.75284 23.2168 8.47921 22.6675C7.20558 22.1183 6.0977 21.3723 5.15557 20.4294C4.21343 19.4866 3.46775 18.3787 2.91852 17.1058C2.36929 15.8329 2.09433 14.472 2.09363 13.0232C2.09293 11.5744 2.3679 10.2136 2.91852 8.94064C3.46915 7.66771 4.21483 6.55983 5.15557 5.617C6.09631 4.67416 7.20419 3.92848 8.47921 3.37995C9.75423 2.83142 11.1151 2.55645 12.5618 2.55506C14.0085 2.55366 15.3694 2.82863 16.6444 3.37995C17.9194 3.93127 19.0273 4.67696 19.968 5.617C20.9088 6.55704 21.6548 7.66492 22.2061 8.94064C22.7574 10.2164 23.032 11.5772 23.03 13.0232C23.0279 14.4692 22.7529 15.8301 22.2051 17.1058C21.6572 18.3815 20.9115 19.4894 19.968 20.4294C19.0245 21.3695 17.9166 22.1155 16.6444 22.6675C15.3721 23.2196 14.0113 23.4942 12.5618 23.4914ZM12.5618 21.3977C14.8997 21.3977 16.8799 20.5865 18.5025 18.9639C20.125 17.3413 20.9363 15.3611 20.9363 13.0232C20.9363 10.6853 20.125 8.7051 18.5025 7.08254C16.8799 5.45997 14.8997 4.64869 12.5618 4.64869C10.2239 4.64869 8.24368 5.45997 6.62111 7.08254C4.99855 8.7051 4.18726 10.6853 4.18726 13.0232C4.18726 15.3611 4.99855 17.3413 6.62111 18.9639C8.24368 20.5865 10.2239 21.3977 12.5618 21.3977Z" fill="#F3F4F6"/>
</svg>
