<svg width="20" height="20" viewBox="0 0 20 20" fill="none" xmlns="http://www.w3.org/2000/svg">
<path d="M18.0833 15.5V14.6667L18.9999 14C19.0833 13.9167 19.1666 13.8333 19.0833 13.75L18.2499 12.3333C18.2499 12.25 18.0833 12.25 17.9999 12.25L16.9999 12.6667C16.7499 12.5 16.4999 12.3333 16.2499 12.25L16.0833 11.1667C16.0833 11.0833 15.9999 11 15.9166 11H14.2499C14.0833 11 13.9999 11.0833 13.9999 11.1667L13.8333 12.25C13.5833 12.4167 13.4166 12.5 13.1666 12.6667L12.1666 12.25C12.0833 12.25 11.9999 12.25 11.9166 12.3333L11.0833 13.75C11.0833 13.8333 11.0833 13.9167 11.1666 14L12.0833 14.6667V15.5L11.1666 16.1667C11.0833 16.25 10.9999 16.3333 11.0833 16.4167L11.9166 17.8333C11.9999 17.9167 12.0833 17.9167 12.1666 17.9167L13.1666 17.5C13.3333 17.6667 13.5833 17.8333 13.8333 17.9167L13.9999 19C14.0833 19.0833 14.1666 19.1667 14.2499 19.1667H15.9166C15.9999 19.1667 16.0833 19.0833 16.0833 19L16.2499 17.9167C16.4999 17.75 16.6666 17.6667 16.9166 17.5L17.9166 17.8333C17.9999 17.8333 18.0833 17.8333 18.1666 17.75L18.9999 16.3333C19.0833 16.25 19.0833 16.1667 18.9999 16.1667L18.0833 15.5ZM14.9999 16.25C14.3333 16.25 13.7499 15.6667 13.7499 15C13.7499 14.3333 14.3333 13.75 14.9999 13.75C15.6666 13.75 16.2499 14.3333 16.2499 15C16.2499 15.6667 15.6666 16.25 14.9999 16.25ZM10.2499 18.3333H2.49992C1.58325 18.3333 0.833252 17.5833 0.833252 16.6667V3.33334C0.833252 2.41667 1.58325 1.66667 2.49992 1.66667H17.4999C18.4166 1.66667 19.1666 2.41667 19.1666 3.33334V10.9167C18.6666 10.4167 18.0833 10 17.4999 9.75V5.00001H2.49992V16.6667H9.41659C9.58325 17.25 9.83325 17.8333 10.2499 18.3333Z" fill="black"/>
</svg>
