<svg width="26" height="26" viewBox="0 0 26 26" fill="none" xmlns="http://www.w3.org/2000/svg">
<path d="M13 15.0692C14.13 15.0692 15.046 14.1532 15.046 13.0233C15.046 11.8933 14.13 10.9773 13 10.9773C11.87 10.9773 10.954 11.8933 10.954 13.0233C10.954 14.1532 11.87 15.0692 13 15.0692Z" stroke="#F3F4F6" stroke-width="2"/>
<path d="M6.24723 6.76256L6.75873 5.87562C6.55791 5.75952 6.3236 5.71511 6.09422 5.74968C5.86485 5.78426 5.65403 5.89576 5.49636 6.0659L6.24723 6.76256ZM4.20227 10.3062L3.22429 10.0044C3.15622 10.2258 3.1653 10.4638 3.25004 10.6793C3.33478 10.8949 3.49017 11.0753 3.69078 11.1911L4.20227 10.3062ZM4.20023 15.7393L3.68873 14.8534C3.48787 14.9694 3.3324 15.1503 3.24783 15.3662C3.16325 15.5822 3.15459 15.8206 3.22327 16.0421L4.20023 15.7393ZM6.24621 19.2829L5.49534 19.9786C5.65301 20.1487 5.86382 20.2602 6.0932 20.2948C6.32257 20.3294 6.55689 20.285 6.75771 20.1689L6.24621 19.2829ZM10.952 21.999H9.93103C9.93104 22.2308 10.0098 22.4558 10.1544 22.637C10.299 22.8182 10.5009 22.9449 10.7269 22.9964L10.952 21.999ZM15.045 22.001L15.2731 22.9985C15.499 22.9468 15.7006 22.82 15.845 22.6388C15.9894 22.4576 16.068 22.2327 16.068 22.001H15.045ZM19.7517 19.284L19.2402 20.1699C19.441 20.2857 19.6751 20.33 19.9042 20.2954C20.1334 20.2609 20.344 20.1495 20.5016 19.9796L19.7517 19.284ZM21.7957 15.7383L22.7737 16.0401C22.8417 15.8187 22.8327 15.5807 22.7479 15.3652C22.6632 15.1496 22.5078 14.9692 22.3072 14.8534L21.7957 15.7383ZM21.7977 10.3052L22.3092 11.1911C22.5101 11.0751 22.6656 10.8942 22.7501 10.6782C22.8347 10.4623 22.8434 10.2239 22.7747 10.0024L21.7977 10.3052ZM19.7517 6.76051L20.5026 6.0659C20.3451 5.89559 20.1343 5.7839 19.9049 5.74914C19.6756 5.71438 19.4412 5.75862 19.2402 5.8746L19.7517 6.76051ZM15.046 4.04651H16.069C16.069 3.81482 15.9904 3.58997 15.846 3.40877C15.7016 3.22758 15.5 3.10077 15.2741 3.0491L15.046 4.04651ZM10.954 4.04447L10.7259 3.04705C10.5 3.09872 10.2984 3.22553 10.154 3.40673C10.0096 3.58792 9.93098 3.81277 9.93103 4.04447H10.954ZM5.18025 10.608C5.54186 9.43473 6.16281 8.35787 6.99709 7.45717L5.49636 6.0659C4.45351 7.19177 3.67733 8.53887 3.22532 10.0054L5.18025 10.608ZM5.91272 17.1152C5.60588 16.5852 5.3595 16.0225 5.17821 15.4375L3.22429 16.0431C3.44628 16.7603 3.75113 17.463 4.14089 18.1382L5.91272 17.1152ZM6.99709 18.5894C6.58201 18.14 6.2176 17.6456 5.91272 17.1152L4.14089 18.1382C4.52963 18.8134 4.98691 19.4282 5.49636 19.9796L6.99709 18.5894ZM14.8189 21.0046C13.6215 21.2769 12.3782 21.2762 11.1811 21.0026L10.7259 22.9974C12.2226 23.3394 13.7771 23.3401 15.2741 22.9995L14.8189 21.0046ZM20.8197 15.4385C20.4581 16.6118 19.8372 17.6887 19.0029 18.5894L20.5036 19.9806C21.5465 18.8548 22.3227 17.5087 22.7747 16.0421L20.8197 15.4385ZM20.0873 8.9313C20.4003 9.47348 20.6448 10.0361 20.8218 10.609L22.7757 10.0034C22.5494 9.27297 22.242 8.57022 21.8591 7.90831L20.0873 8.9313ZM19.0029 7.45717C19.409 7.89705 19.7743 8.38809 20.0873 8.9313L21.8591 7.90831C21.4775 7.24579 21.0229 6.62814 20.5036 6.06692L19.0029 7.45717ZM11.1811 5.04189C12.3785 4.76965 13.6218 4.77035 14.8189 5.04393L15.2741 3.0491C13.7777 2.70729 12.2226 2.70659 10.7259 3.04705L11.1811 5.04189ZM11.977 5.93598V4.04345H9.93103V5.93598H11.977ZM8.39654 6.82189L6.75873 5.87562L5.73574 7.64744L7.37355 8.59371L8.39654 6.82189ZM5.32756 13.9092L3.68976 14.8544L4.71275 16.6262L6.35056 15.681L5.32756 13.9092ZM6.35056 10.3655L4.71377 9.42131L3.69078 11.1931L5.32756 12.1374L6.35056 10.3655ZM11.977 22V20.1105H9.93103V21.999L11.977 22ZM7.37355 17.4528L5.73574 18.3991L6.75873 20.1709L8.39552 19.2246L7.37355 17.4528ZM20.2643 18.3991L18.6265 17.4528L17.6035 19.2246L19.2413 20.1709L20.2643 18.3991ZM16.069 22.0021V20.1105H14.023V22.0031L16.069 22.0021ZM21.2873 9.41927L19.6494 10.3655L20.6724 12.1374L22.3092 11.1911L21.2873 9.41927ZM22.3082 14.8534L20.6724 13.9092L19.6494 15.681L21.2862 16.6252L22.3082 14.8534ZM16.069 5.93598V4.04651H14.023V5.93598H16.069ZM19.2413 5.87562L17.6035 6.82189L18.6265 8.59371L20.2643 7.64744L19.2413 5.87562ZM14.023 5.93598C14.023 8.29909 16.5805 9.77527 18.6265 8.59371L17.6035 6.82189C17.448 6.91168 17.2715 6.95894 17.092 6.95895C16.9124 6.95895 16.736 6.91168 16.5805 6.8219C16.425 6.73211 16.2958 6.60298 16.206 6.44747C16.1163 6.29196 16.069 6.11555 16.069 5.93598H14.023ZM19.6494 10.3655C17.6035 11.5471 17.6035 14.4994 19.6494 15.681L20.6724 13.9092C20.5169 13.8194 20.3878 13.6902 20.298 13.5347C20.2083 13.3792 20.161 13.2028 20.161 13.0233C20.161 12.8437 20.2083 12.6673 20.298 12.5118C20.3878 12.3563 20.5169 12.2271 20.6724 12.1374L19.6494 10.3655ZM18.6265 17.4528C16.5805 16.2723 14.023 17.7485 14.023 20.1105H16.069C16.069 19.931 16.1163 19.7546 16.206 19.5991C16.2958 19.4436 16.425 19.3144 16.5805 19.2246C16.736 19.1348 16.9124 19.0876 17.092 19.0876C17.2715 19.0876 17.448 19.1349 17.6035 19.2246L18.6265 17.4528ZM11.977 20.1105C11.977 17.7474 9.41953 16.2713 7.37355 17.4528L8.39552 19.2246C8.55103 19.1349 8.72846 19.0876 8.90803 19.0876C9.0876 19.0876 9.26401 19.1348 9.41952 19.2246C9.57503 19.3144 9.70417 19.4436 9.79396 19.5991C9.88375 19.7546 9.93102 19.931 9.93103 20.1105H11.977ZM6.35056 15.681C8.39654 14.4994 8.39654 11.5471 6.35056 10.3655L5.32756 12.1374C5.48307 12.2271 5.6122 12.3563 5.70197 12.5118C5.79175 12.6673 5.83902 12.8437 5.83902 13.0233C5.83902 13.2028 5.79175 13.3792 5.70197 13.5347C5.6122 13.6902 5.48307 13.8194 5.32756 13.9092L6.35056 15.681ZM9.93103 5.93598C9.93102 6.11555 9.88375 6.29196 9.79396 6.44747C9.70417 6.60298 9.57503 6.73211 9.41952 6.8219C9.26401 6.91168 9.0876 6.95895 8.90803 6.95895C8.72846 6.95894 8.55205 6.91168 8.39654 6.82189L7.37355 8.59371C9.41953 9.77424 11.977 8.29807 11.977 5.93598H9.93103Z" fill="#F3F4F6"/>
</svg>
